<svg width="16" height="12" viewBox="0 0 16 12" fill="none" xmlns="http://www.w3.org/2000/svg">
<path fill-rule="evenodd" clip-rule="evenodd" d="M15.7903 5.3871L15.7071 5.29289L10.7071 0.292893C10.3166 -0.0976311 9.68342 -0.0976311 9.29289 0.292893C8.93241 0.653377 8.90468 1.22061 9.2097 1.6129L9.29289 1.70711L12.585 5H1C0.447715 5 0 5.44772 0 6C0 6.51284 0.38604 6.93551 0.883379 6.99327L1 7H12.585L9.29289 10.2929C8.93241 10.6534 8.90468 11.2206 9.2097 11.6129L9.29289 11.7071C9.65338 12.0676 10.2206 12.0953 10.6129 11.7903L10.7071 11.7071L15.7071 6.70711C16.0676 6.34662 16.0953 5.77939 15.7903 5.3871Z" fill="white"/>
</svg>
